<svg width="32" height="32" viewBox="0 0 32 32" fill="none" xmlns="http://www.w3.org/2000/svg">
<path d="M23.969 5H7.969C5.75986 5 3.969 6.79086 3.969 9V23C3.969 25.2091 5.75986 27 7.969 27H23.969C26.1781 27 27.969 25.2091 27.969 23V9C27.969 6.79086 26.1781 5 23.969 5Z" fill="url(#paint0_linear_10_60)"/>
<path d="M23.969 5H7.969C5.75986 5 3.969 6.79086 3.969 9V23C3.969 25.2091 5.75986 27 7.969 27H23.969C26.1781 27 27.969 25.2091 27.969 23V9C27.969 6.79086 26.1781 5 23.969 5Z" fill="url(#paint1_linear_10_60)"/>
<path d="M23.969 5H7.969C5.75986 5 3.969 6.79086 3.969 9V23C3.969 25.2091 5.75986 27 7.969 27H23.969C26.1781 27 27.969 25.2091 27.969 23V9C27.969 6.79086 26.1781 5 23.969 5Z" fill="url(#paint2_linear_10_60)"/>
<path d="M23.969 5H7.969C5.75986 5 3.969 6.79086 3.969 9V23C3.969 25.2091 5.75986 27 7.969 27H23.969C26.1781 27 27.969 25.2091 27.969 23V9C27.969 6.79086 26.1781 5 23.969 5Z" fill="url(#paint3_linear_10_60)"/>
<path d="M23.969 5H7.969C5.75986 5 3.969 6.79086 3.969 9V23C3.969 25.2091 5.75986 27 7.969 27H23.969C26.1781 27 27.969 25.2091 27.969 23V9C27.969 6.79086 26.1781 5 23.969 5Z" fill="url(#paint4_linear_10_60)"/>
<path d="M23.969 5H7.969C5.75986 5 3.969 6.79086 3.969 9V23C3.969 25.2091 5.75986 27 7.969 27H23.969C26.1781 27 27.969 25.2091 27.969 23V9C27.969 6.79086 26.1781 5 23.969 5Z" fill="url(#paint5_radial_10_60)"/>
<path d="M23.969 5H7.969C5.75986 5 3.969 6.79086 3.969 9V23C3.969 25.2091 5.75986 27 7.969 27H23.969C26.1781 27 27.969 25.2091 27.969 23V9C27.969 6.79086 26.1781 5 23.969 5Z" fill="url(#paint6_radial_10_60)"/>
<path d="M23.969 5H7.969C5.75986 5 3.969 6.79086 3.969 9V23C3.969 25.2091 5.75986 27 7.969 27H23.969C26.1781 27 27.969 25.2091 27.969 23V9C27.969 6.79086 26.1781 5 23.969 5Z" fill="url(#paint7_radial_10_60)"/>
<path d="M23.969 5H7.969C5.75986 5 3.969 6.79086 3.969 9V23C3.969 25.2091 5.75986 27 7.969 27H23.969C26.1781 27 27.969 25.2091 27.969 23V9C27.969 6.79086 26.1781 5 23.969 5Z" fill="url(#paint8_radial_10_60)"/>
<path d="M23.969 5H7.969C5.75986 5 3.969 6.79086 3.969 9V23C3.969 25.2091 5.75986 27 7.969 27H23.969C26.1781 27 27.969 25.2091 27.969 23V9C27.969 6.79086 26.1781 5 23.969 5Z" fill="url(#paint9_linear_10_60)"/>
<g filter="url(#filter0_f_10_60)">
<path d="M24.688 10.319H26.906V22.366C26.8973 22.6545 26.7766 22.9283 26.5695 23.1293C26.3624 23.3303 26.0851 23.4427 25.7965 23.4427C25.5079 23.4427 25.2306 23.3303 25.0235 23.1293C24.8163 22.9283 24.6957 22.6545 24.687 22.366L24.688 10.319Z" fill="url(#paint10_linear_10_60)" fill-opacity="0.75"/>
</g>
<g filter="url(#filter1_f_10_60)">
<path d="M26.219 21.475L19.472 7.515C19.3767 7.31755 19.335 7.09852 19.3512 6.87988C19.3673 6.66124 19.4406 6.45068 19.5638 6.26933C19.687 6.08798 19.8557 5.94222 20.053 5.84668C20.2504 5.75114 20.4693 5.70918 20.688 5.725L23.026 5.895C23.622 5.93815 24.2034 6.09955 24.7363 6.36979C25.2692 6.64003 25.7429 7.01369 26.1299 7.46898C26.5169 7.92427 26.8093 8.45206 26.9901 9.02157C27.1709 9.59107 27.2365 10.1909 27.183 10.786L26.219 21.475Z" fill="#D89475"/>
</g>
<path d="M24.031 21.844C24.031 17.369 19.719 15.969 16.031 15.969C11.906 15.969 7.969 17.531 7.969 21.844C7.969 25.794 12.281 29.187 16.031 29.187C20.531 29.187 24.031 24.531 24.031 21.844Z" fill="url(#paint11_radial_10_60)"/>
<path d="M24.031 21.844C24.031 17.369 19.719 15.969 16.031 15.969C11.906 15.969 7.969 17.531 7.969 21.844C7.969 25.794 12.281 29.187 16.031 29.187C20.531 29.187 24.031 24.531 24.031 21.844Z" fill="url(#paint12_radial_10_60)"/>
<path d="M24.031 21.844C24.031 17.369 19.719 15.969 16.031 15.969C11.906 15.969 7.969 17.531 7.969 21.844C7.969 25.794 12.281 29.187 16.031 29.187C20.531 29.187 24.031 24.531 24.031 21.844Z" fill="url(#paint13_radial_10_60)"/>
<g filter="url(#filter2_i_10_60)">
<path d="M12.96 24.656L15.969 22.406L18.977 24.656V27C18.977 28.657 17.626 30 15.969 30C15.1725 30.0003 14.4085 29.6845 13.8446 29.1221C13.2806 28.5597 12.9629 27.7965 12.961 27L12.96 24.656Z" fill="url(#paint14_linear_10_60)"/>
</g>
<g filter="url(#filter3_f_10_60)">
<path d="M15.594 22.406V29.828C18.161 29.703 18.813 27.563 18.813 26.734V24.47C16.922 24.095 15.879 22.938 15.593 22.407" fill="url(#paint15_linear_10_60)"/>
</g>
<g filter="url(#filter4_f_10_60)">
<path d="M16.623 22.896L15.969 22.406L15.3 22.906C14.906 23.889 14.084 24.073 13.363 24.221V25.111C14.323 25.018 15.384 24.658 15.963 23.521C16.546 24.661 17.613 25.021 18.574 25.111V24.223C17.848 24.078 17.017 23.89 16.624 22.896" fill="#BD1836"/>
</g>
<path d="M12.5 23.984C12.3674 23.984 12.2402 24.0367 12.1464 24.1305C12.0527 24.2242 12 24.3514 12 24.484C12 24.6166 12.0527 24.7438 12.1464 24.8376C12.2402 24.9313 12.3674 24.984 12.5 24.984V23.984ZM16.469 20.516C16.469 20.3834 16.4163 20.2562 16.3226 20.1625C16.2288 20.0687 16.1016 20.016 15.969 20.016C15.8364 20.016 15.7092 20.0687 15.6154 20.1625C15.5217 20.2562 15.469 20.3834 15.469 20.516H16.469ZM12.5 24.984C14.209 24.984 16.469 23.5 16.469 20.516H15.469C15.469 22.906 13.698 23.984 12.5 23.984V24.984Z" fill="url(#paint16_radial_10_60)"/>
<path d="M12.5 23.984C12.3674 23.984 12.2402 24.0367 12.1464 24.1305C12.0527 24.2242 12 24.3514 12 24.484C12 24.6166 12.0527 24.7438 12.1464 24.8376C12.2402 24.9313 12.3674 24.984 12.5 24.984V23.984ZM16.469 20.516C16.469 20.3834 16.4163 20.2562 16.3226 20.1625C16.2288 20.0687 16.1016 20.016 15.969 20.016C15.8364 20.016 15.7092 20.0687 15.6154 20.1625C15.5217 20.2562 15.469 20.3834 15.469 20.516H16.469ZM12.5 24.984C14.209 24.984 16.469 23.5 16.469 20.516H15.469C15.469 22.906 13.698 23.984 12.5 23.984V24.984Z" fill="url(#paint17_linear_10_60)"/>
<path d="M19.426 24.484C17.973 24.484 15.957 23.204 15.957 20.516" stroke="url(#paint18_radial_10_60)" stroke-linecap="round"/>
<path d="M19.426 24.484C17.973 24.484 15.957 23.204 15.957 20.516" stroke="url(#paint19_linear_10_60)" stroke-linecap="round"/>
<path d="M16.474 20.516C16.474 20.3834 16.4213 20.2562 16.3275 20.1625C16.2338 20.0687 16.1066 20.016 15.974 20.016H15.963C15.8304 20.016 15.7032 20.0687 15.6094 20.1625C15.5157 20.2562 15.463 20.3834 15.463 20.516C15.463 20.598 15.465 20.679 15.468 20.759C15.352 22.98 13.662 23.984 12.506 23.984C12.3734 23.984 12.2462 24.0367 12.1524 24.1305C12.0587 24.2242 12.006 24.3514 12.006 24.484C12.006 24.6166 12.0587 24.7438 12.1524 24.8376C12.2462 24.9313 12.3734 24.984 12.506 24.984C13.716 24.984 15.205 24.238 15.969 22.742C16.733 24.238 18.221 24.984 19.432 24.984C19.5646 24.984 19.6918 24.9313 19.7856 24.8376C19.8793 24.7438 19.932 24.6166 19.932 24.484C19.932 24.3514 19.8793 24.2242 19.7856 24.1305C19.6918 24.0367 19.5646 23.984 19.432 23.984C18.276 23.984 16.585 22.98 16.469 20.759C16.4724 20.6781 16.474 20.597 16.474 20.516Z" fill="url(#paint20_radial_10_60)"/>
<path d="M4.395 16.362L11.695 6.067C11.8276 5.87993 11.9063 5.65997 11.9223 5.4312C11.9383 5.20243 11.891 4.97367 11.7857 4.76995C11.6804 4.56624 11.5211 4.39542 11.3252 4.2762C11.1293 4.15698 10.9043 4.09395 10.675 4.094H6.625C5.43153 4.094 4.28693 4.56811 3.44302 5.41202C2.59911 6.25593 2.125 7.40053 2.125 8.594V15.639C2.125 16.857 3.69 17.356 4.395 16.362Z" fill="url(#paint21_linear_10_60)"/>
<path d="M4.395 16.362L11.695 6.067C11.8276 5.87993 11.9063 5.65997 11.9223 5.4312C11.9383 5.20243 11.891 4.97367 11.7857 4.76995C11.6804 4.56624 11.5211 4.39542 11.3252 4.2762C11.1293 4.15698 10.9043 4.09395 10.675 4.094H6.625C5.43153 4.094 4.28693 4.56811 3.44302 5.41202C2.59911 6.25593 2.125 7.40053 2.125 8.594V15.639C2.125 16.857 3.69 17.356 4.395 16.362Z" fill="url(#paint22_linear_10_60)"/>
<path d="M4.395 16.362L11.695 6.067C11.8276 5.87993 11.9063 5.65997 11.9223 5.4312C11.9383 5.20243 11.891 4.97367 11.7857 4.76995C11.6804 4.56624 11.5211 4.39542 11.3252 4.2762C11.1293 4.15698 10.9043 4.09395 10.675 4.094H6.625C5.43153 4.094 4.28693 4.56811 3.44302 5.41202C2.59911 6.25593 2.125 7.40053 2.125 8.594V15.639C2.125 16.857 3.69 17.356 4.395 16.362Z" fill="url(#paint23_linear_10_60)"/>
<path d="M4.395 16.362L11.695 6.067C11.8276 5.87993 11.9063 5.65997 11.9223 5.4312C11.9383 5.20243 11.891 4.97367 11.7857 4.76995C11.6804 4.56624 11.5211 4.39542 11.3252 4.2762C11.1293 4.15698 10.9043 4.09395 10.675 4.094H6.625C5.43153 4.094 4.28693 4.56811 3.44302 5.41202C2.59911 6.25593 2.125 7.40053 2.125 8.594V15.639C2.125 16.857 3.69 17.356 4.395 16.362Z" fill="url(#paint24_linear_10_60)"/>
<path d="M4.395 16.362L11.695 6.067C11.8276 5.87993 11.9063 5.65997 11.9223 5.4312C11.9383 5.20243 11.891 4.97367 11.7857 4.76995C11.6804 4.56624 11.5211 4.39542 11.3252 4.2762C11.1293 4.15698 10.9043 4.09395 10.675 4.094H6.625C5.43153 4.094 4.28693 4.56811 3.44302 5.41202C2.59911 6.25593 2.125 7.40053 2.125 8.594V15.639C2.125 16.857 3.69 17.356 4.395 16.362Z" fill="url(#paint25_radial_10_60)"/>
<path d="M27.512 16.362L20.212 6.067C20.0794 5.87993 20.0007 5.65997 19.9847 5.4312C19.9687 5.20243 20.016 4.97367 20.1213 4.76995C20.2266 4.56624 20.3859 4.39542 20.5818 4.2762C20.7777 4.15698 21.0027 4.09395 21.232 4.094H25.282C26.4755 4.094 27.6201 4.56811 28.464 5.41202C29.3079 6.25593 29.782 7.40053 29.782 8.594V15.639C29.782 16.857 28.216 17.356 27.512 16.362Z" fill="url(#paint26_linear_10_60)"/>
<path d="M27.512 16.362L20.212 6.067C20.0794 5.87993 20.0007 5.65997 19.9847 5.4312C19.9687 5.20243 20.016 4.97367 20.1213 4.76995C20.2266 4.56624 20.3859 4.39542 20.5818 4.2762C20.7777 4.15698 21.0027 4.09395 21.232 4.094H25.282C26.4755 4.094 27.6201 4.56811 28.464 5.41202C29.3079 6.25593 29.782 7.40053 29.782 8.594V15.639C29.782 16.857 28.216 17.356 27.512 16.362Z" fill="url(#paint27_linear_10_60)"/>
<path d="M27.512 16.362L20.212 6.067C20.0794 5.87993 20.0007 5.65997 19.9847 5.4312C19.9687 5.20243 20.016 4.97367 20.1213 4.76995C20.2266 4.56624 20.3859 4.39542 20.5818 4.2762C20.7777 4.15698 21.0027 4.09395 21.232 4.094H25.282C26.4755 4.094 27.6201 4.56811 28.464 5.41202C29.3079 6.25593 29.782 7.40053 29.782 8.594V15.639C29.782 16.857 28.216 17.356 27.512 16.362Z" fill="url(#paint28_linear_10_60)"/>
<path d="M27.512 16.362L20.212 6.067C20.0794 5.87993 20.0007 5.65997 19.9847 5.4312C19.9687 5.20243 20.016 4.97367 20.1213 4.76995C20.2266 4.56624 20.3859 4.39542 20.5818 4.2762C20.7777 4.15698 21.0027 4.09395 21.232 4.094H25.282C26.4755 4.094 27.6201 4.56811 28.464 5.41202C29.3079 6.25593 29.782 7.40053 29.782 8.594V15.639C29.782 16.857 28.216 17.356 27.512 16.362Z" fill="url(#paint29_radial_10_60)"/>
<g filter="url(#filter5_f_10_60)">
<path d="M12.5 12.229H12.499C12.0914 12.229 11.761 12.5594 11.761 12.967V14.468C11.761 14.8756 12.0914 15.206 12.499 15.206H12.5C12.9076 15.206 13.238 14.8756 13.238 14.468V12.967C13.238 12.5594 12.9076 12.229 12.5 12.229Z" fill="#DC9868"/>
</g>
<path d="M12.966 12.01H12.965C12.5574 12.01 12.227 12.3404 12.227 12.748V14.249C12.227 14.6566 12.5574 14.987 12.965 14.987H12.966C13.3736 14.987 13.704 14.6566 13.704 14.249V12.748C13.704 12.3404 13.3736 12.01 12.966 12.01Z" fill="url(#paint30_linear_10_60)"/>
<path d="M12.966 12.01H12.965C12.5574 12.01 12.227 12.3404 12.227 12.748V14.249C12.227 14.6566 12.5574 14.987 12.965 14.987H12.966C13.3736 14.987 13.704 14.6566 13.704 14.249V12.748C13.704 12.3404 13.3736 12.01 12.966 12.01Z" fill="url(#paint31_linear_10_60)"/>
<g filter="url(#filter6_f_10_60)">
<path d="M13.221 12.463V14.057" stroke="#725F62" stroke-width="0.2" stroke-linecap="round"/>
</g>
<path d="M18.95 12.01H18.949C18.5414 12.01 18.211 12.3404 18.211 12.748V14.249C18.211 14.6566 18.5414 14.987 18.949 14.987H18.95C19.3576 14.987 19.688 14.6566 19.688 14.249V12.748C19.688 12.3404 19.3576 12.01 18.95 12.01Z" fill="url(#paint32_linear_10_60)"/>
<path d="M18.95 12.01H18.949C18.5414 12.01 18.211 12.3404 18.211 12.748V14.249C18.211 14.6566 18.5414 14.987 18.949 14.987H18.95C19.3576 14.987 19.688 14.6566 19.688 14.249V12.748C19.688 12.3404 19.3576 12.01 18.95 12.01Z" fill="url(#paint33_linear_10_60)"/>
<g filter="url(#filter7_f_10_60)">
<path d="M19.205 12.463V14.057" stroke="#725F62" stroke-width="0.2" stroke-linecap="round"/>
</g>
<path d="M16.97 16.998H15.063C14.9111 16.9979 14.7624 17.041 14.6341 17.1223C14.5058 17.2036 14.4033 17.3197 14.3386 17.4571C14.2739 17.5945 14.2496 17.7475 14.2687 17.8982C14.2877 18.0488 14.3492 18.191 14.446 18.308L15.121 19.124C15.2365 19.2636 15.3822 19.3753 15.5471 19.4506C15.7119 19.5258 15.8917 19.5628 16.0729 19.5587C16.2541 19.5545 16.432 19.5094 16.5933 19.4267C16.7545 19.3439 16.895 19.2258 17.004 19.081L17.609 18.28C17.6987 18.1612 17.7535 18.0196 17.7671 17.8713C17.7808 17.7231 17.7528 17.5739 17.6863 17.4407C17.6198 17.3074 17.5174 17.1954 17.3907 17.1172C17.2639 17.039 17.1189 16.9977 16.97 16.998Z" fill="url(#paint34_linear_10_60)"/>
<path d="M16.97 16.998H15.063C14.9111 16.9979 14.7624 17.041 14.6341 17.1223C14.5058 17.2036 14.4033 17.3197 14.3386 17.4571C14.2739 17.5945 14.2496 17.7475 14.2687 17.8982C14.2877 18.0488 14.3492 18.191 14.446 18.308L15.121 19.124C15.2365 19.2636 15.3822 19.3753 15.5471 19.4506C15.7119 19.5258 15.8917 19.5628 16.0729 19.5587C16.2541 19.5545 16.432 19.5094 16.5933 19.4267C16.7545 19.3439 16.895 19.2258 17.004 19.081L17.609 18.28C17.6987 18.1612 17.7535 18.0196 17.7671 17.8713C17.7808 17.7231 17.7528 17.5739 17.6863 17.4407C17.6198 17.3074 17.5174 17.1954 17.3907 17.1172C17.2639 17.039 17.1189 16.9977 16.97 16.998Z" fill="url(#paint35_radial_10_60)"/>
<path d="M16.97 16.998H15.063C14.9111 16.9979 14.7624 17.041 14.6341 17.1223C14.5058 17.2036 14.4033 17.3197 14.3386 17.4571C14.2739 17.5945 14.2496 17.7475 14.2687 17.8982C14.2877 18.0488 14.3492 18.191 14.446 18.308L15.121 19.124C15.2365 19.2636 15.3822 19.3753 15.5471 19.4506C15.7119 19.5258 15.8917 19.5628 16.0729 19.5587C16.2541 19.5545 16.432 19.5094 16.5933 19.4267C16.7545 19.3439 16.895 19.2258 17.004 19.081L17.609 18.28C17.6987 18.1612 17.7535 18.0196 17.7671 17.8713C17.7808 17.7231 17.7528 17.5739 17.6863 17.4407C17.6198 17.3074 17.5174 17.1954 17.3907 17.1172C17.2639 17.039 17.1189 16.9977 16.97 16.998Z" fill="url(#paint36_linear_10_60)"/>
<g filter="url(#filter8_f_10_60)">
<path d="M17.3596 17.922C17.4482 17.8422 17.4092 17.6543 17.2725 17.5025C17.1358 17.3506 16.9531 17.2922 16.8644 17.372C16.7758 17.4518 16.8147 17.6397 16.9515 17.7915C17.0882 17.9434 17.2709 18.0018 17.3596 17.922Z" fill="#786366"/>
</g>
<g filter="url(#filter9_f_10_60)">
<path d="M28.875 7.287V15.537" stroke="url(#paint37_linear_10_60)" stroke-width="0.2"/>
</g>
<g filter="url(#filter10_f_10_60)">
<path d="M11.281 5.475L7.703 10.63" stroke="url(#paint38_linear_10_60)" stroke-width="0.2"/>
</g>
<defs>
<filter id="filter0_f_10_60" x="22.187" y="7.819" width="7.219" height="18.1237" filterUnits="userSpaceOnUse" color-interpolation-filters="sRGB">
<feFlood flood-opacity="0" result="BackgroundImageFix"/>
<feBlend mode="normal" in="SourceGraphic" in2="BackgroundImageFix" result="shape"/>
<feGaussianBlur stdDeviation="1.25" result="effect1_foregroundBlur_10_60"/>
</filter>
<filter id="filter1_f_10_60" x="17.3478" y="3.72174" width="11.8533" height="19.7533" filterUnits="userSpaceOnUse" color-interpolation-filters="sRGB">
<feFlood flood-opacity="0" result="BackgroundImageFix"/>
<feBlend mode="normal" in="SourceGraphic" in2="BackgroundImageFix" result="shape"/>
<feGaussianBlur stdDeviation="1" result="effect1_foregroundBlur_10_60"/>
</filter>
<filter id="filter2_i_10_60" x="12.96" y="21.906" width="6.017" height="8.094" filterUnits="userSpaceOnUse" color-interpolation-filters="sRGB">
<feFlood flood-opacity="0" result="BackgroundImageFix"/>
<feBlend mode="normal" in="SourceGraphic" in2="BackgroundImageFix" result="shape"/>
<feColorMatrix in="SourceAlpha" type="matrix" values="0 0 0 0 0 0 0 0 0 0 0 0 0 0 0 0 0 0 127 0" result="hardAlpha"/>
<feOffset dy="-0.5"/>
<feGaussianBlur stdDeviation="0.25"/>
<feComposite in2="hardAlpha" operator="arithmetic" k2="-1" k3="1"/>
<feColorMatrix type="matrix" values="0 0 0 0 0.841667 0 0 0 0 0.164826 0 0 0 0 0.552771 0 0 0 1 0"/>
<feBlend mode="normal" in2="shape" result="effect1_innerShadow_10_60"/>
</filter>
<filter id="filter3_f_10_60" x="15.193" y="22.006" width="4.02" height="8.222" filterUnits="userSpaceOnUse" color-interpolation-filters="sRGB">
<feFlood flood-opacity="0" result="BackgroundImageFix"/>
<feBlend mode="normal" in="SourceGraphic" in2="BackgroundImageFix" result="shape"/>
<feGaussianBlur stdDeviation="0.2" result="effect1_foregroundBlur_10_60"/>
</filter>
<filter id="filter4_f_10_60" x="12.863" y="21.906" width="6.211" height="3.705" filterUnits="userSpaceOnUse" color-interpolation-filters="sRGB">
<feFlood flood-opacity="0" result="BackgroundImageFix"/>
<feBlend mode="normal" in="SourceGraphic" in2="BackgroundImageFix" result="shape"/>
<feGaussianBlur stdDeviation="0.25" result="effect1_foregroundBlur_10_60"/>
</filter>
<filter id="filter5_f_10_60" x="10.961" y="11.429" width="3.077" height="4.577" filterUnits="userSpaceOnUse" color-interpolation-filters="sRGB">
<feFlood flood-opacity="0" result="BackgroundImageFix"/>
<feBlend mode="normal" in="SourceGraphic" in2="BackgroundImageFix" result="shape"/>
<feGaussianBlur stdDeviation="0.4" result="effect1_foregroundBlur_10_60"/>
</filter>
<filter id="filter6_f_10_60" x="12.821" y="12.063" width="0.799997" height="2.394" filterUnits="userSpaceOnUse" color-interpolation-filters="sRGB">
<feFlood flood-opacity="0" result="BackgroundImageFix"/>
<feBlend mode="normal" in="SourceGraphic" in2="BackgroundImageFix" result="shape"/>
<feGaussianBlur stdDeviation="0.15" result="effect1_foregroundBlur_10_60"/>
</filter>
<filter id="filter7_f_10_60" x="18.805" y="12.063" width="0.799997" height="2.394" filterUnits="userSpaceOnUse" color-interpolation-filters="sRGB">
<feFlood flood-opacity="0" result="BackgroundImageFix"/>
<feBlend mode="normal" in="SourceGraphic" in2="BackgroundImageFix" result="shape"/>
<feGaussianBlur stdDeviation="0.15" result="effect1_foregroundBlur_10_60"/>
</filter>
<filter id="filter8_f_10_60" x="16.3169" y="16.8363" width="1.59019" height="1.62141" filterUnits="userSpaceOnUse" color-interpolation-filters="sRGB">
<feFlood flood-opacity="0" result="BackgroundImageFix"/>
<feBlend mode="normal" in="SourceGraphic" in2="BackgroundImageFix" result="shape"/>
<feGaussianBlur stdDeviation="0.25" result="effect1_foregroundBlur_10_60"/>
</filter>
<filter id="filter9_f_10_60" x="28.025" y="6.537" width="1.7" height="9.75" filterUnits="userSpaceOnUse" color-interpolation-filters="sRGB">
<feFlood flood-opacity="0" result="BackgroundImageFix"/>
<feBlend mode="normal" in="SourceGraphic" in2="BackgroundImageFix" result="shape"/>
<feGaussianBlur stdDeviation="0.375" result="effect1_foregroundBlur_10_60"/>
</filter>
<filter id="filter10_f_10_60" x="7.12085" y="4.91798" width="4.7423" height="6.26904" filterUnits="userSpaceOnUse" color-interpolation-filters="sRGB">
<feFlood flood-opacity="0" result="BackgroundImageFix"/>
<feBlend mode="normal" in="SourceGraphic" in2="BackgroundImageFix" result="shape"/>
<feGaussianBlur stdDeviation="0.25" result="effect1_foregroundBlur_10_60"/>
</filter>
<linearGradient id="paint0_linear_10_60" x1="15.969" y1="6.037" x2="15.969" y2="31.443" gradientUnits="userSpaceOnUse">
<stop stop-color="#F7C5A1"/>
<stop offset="1" stop-color="#E28454"/>
</linearGradient>
<linearGradient id="paint1_linear_10_60" x1="2.844" y1="27" x2="7.656" y2="27" gradientUnits="userSpaceOnUse">
<stop stop-color="#BD8465"/>
<stop offset="1" stop-color="#BD8465" stop-opacity="0"/>
</linearGradient>
<linearGradient id="paint2_linear_10_60" x1="31.781" y1="27" x2="24.156" y2="27" gradientUnits="userSpaceOnUse">
<stop stop-color="#FFC390"/>
<stop offset="1" stop-color="#FFC390" stop-opacity="0"/>
</linearGradient>
<linearGradient id="paint3_linear_10_60" x1="15.969" y1="21.287" x2="15.969" y2="31.475" gradientUnits="userSpaceOnUse">
<stop stop-color="#89254F" stop-opacity="0"/>
<stop offset="1" stop-color="#98335E"/>
</linearGradient>
<linearGradient id="paint4_linear_10_60" x1="15.969" y1="26.537" x2="15.969" y2="27.319" gradientUnits="userSpaceOnUse">
<stop stop-color="#E273A2" stop-opacity="0"/>
<stop offset="1" stop-color="#E273A2"/>
</linearGradient>
<radialGradient id="paint5_radial_10_60" cx="0" cy="0" r="1" gradientUnits="userSpaceOnUse" gradientTransform="translate(2.032 12.163) rotate(76.072) scale(8.04915 7.19335)">
<stop stop-color="#BD8465"/>
<stop offset="1" stop-color="#BD8465" stop-opacity="0"/>
</radialGradient>
<radialGradient id="paint6_radial_10_60" cx="0" cy="0" r="1" gradientUnits="userSpaceOnUse" gradientTransform="translate(15.969 23.037) rotate(180) scale(10.8125 8.28742)">
<stop stop-color="#AD5C30"/>
<stop offset="1" stop-color="#AD5C30" stop-opacity="0"/>
</radialGradient>
<radialGradient id="paint7_radial_10_60" cx="0" cy="0" r="1" gradientUnits="userSpaceOnUse" gradientTransform="translate(14.8441 24.6619) rotate(87.745) scale(7.94365 6.9459)">
<stop stop-color="#AD5C30"/>
<stop offset="1" stop-color="#AD5C30" stop-opacity="0"/>
</radialGradient>
<radialGradient id="paint8_radial_10_60" cx="0" cy="0" r="1" gradientUnits="userSpaceOnUse" gradientTransform="translate(12.469 5) rotate(70.7479) scale(8.1942 18.8165)">
<stop stop-color="#FFD6B3"/>
<stop offset="1" stop-color="#FFC390" stop-opacity="0"/>
</radialGradient>
<linearGradient id="paint9_linear_10_60" x1="15.171" y1="3.733" x2="15.171" y2="6.415" gradientUnits="userSpaceOnUse">
<stop stop-color="#FFE0C6"/>
<stop offset="1" stop-color="#FFC390" stop-opacity="0"/>
</linearGradient>
<linearGradient id="paint10_linear_10_60" x1="27.375" y1="21.723" x2="27.775" y2="4.745" gradientUnits="userSpaceOnUse">
<stop stop-color="#FFC390"/>
<stop offset="1" stop-color="#FFC390" stop-opacity="0"/>
</linearGradient>
<radialGradient id="paint11_radial_10_60" cx="0" cy="0" r="1" gradientUnits="userSpaceOnUse" gradientTransform="translate(16 18.537) rotate(90) scale(11.625 24.0312)">
<stop stop-color="#FFE3B6"/>
<stop offset="0.318" stop-color="#F5C19B"/>
<stop offset="0.896" stop-color="#BE625B"/>
</radialGradient>
<radialGradient id="paint12_radial_10_60" cx="0" cy="0" r="1" gradientUnits="userSpaceOnUse" gradientTransform="translate(18.469 19.975) rotate(140.599) scale(13.5883 13.9042)">
<stop offset="0.595" stop-color="#BE625B" stop-opacity="0"/>
<stop offset="1" stop-color="#BE625B"/>
</radialGradient>
<radialGradient id="paint13_radial_10_60" cx="0" cy="0" r="1" gradientUnits="userSpaceOnUse" gradientTransform="translate(23.094 16.975) rotate(125.776) scale(5.23845 6.83497)">
<stop stop-color="#FFE9BE"/>
<stop offset="1" stop-color="#FFE9BE" stop-opacity="0"/>
</radialGradient>
<linearGradient id="paint14_linear_10_60" x1="14.219" y1="21.225" x2="14.219" y2="28.412" gradientUnits="userSpaceOnUse">
<stop stop-color="#B41D4E"/>
<stop offset="1" stop-color="#C9297C"/>
</linearGradient>
<linearGradient id="paint15_linear_10_60" x1="20.253" y1="29.594" x2="15.594" y2="29.693" gradientUnits="userSpaceOnUse">
<stop offset="0.438" stop-color="#F26D9E"/>
<stop offset="0.948" stop-color="#EF6A9A" stop-opacity="0"/>
</linearGradient>
<radialGradient id="paint16_radial_10_60" cx="0" cy="0" r="1" gradientUnits="userSpaceOnUse" gradientTransform="translate(14.235 22.756) rotate(48.0128) scale(1.6817 3.82046)">
<stop stop-color="#261317"/>
<stop offset="0.653" stop-color="#65484A"/>
<stop offset="1" stop-color="#3C1534"/>
</radialGradient>
<linearGradient id="paint17_linear_10_60" x1="12.5" y1="24.256" x2="14.345" y2="23.838" gradientUnits="userSpaceOnUse">
<stop stop-color="#4A3435"/>
<stop offset="1" stop-color="#473132" stop-opacity="0"/>
</linearGradient>
<radialGradient id="paint18_radial_10_60" cx="0" cy="0" r="1" gradientUnits="userSpaceOnUse" gradientTransform="translate(17.8358 22.5925) rotate(132.556) scale(1.81361 4.34755)">
<stop stop-color="#261317"/>
<stop offset="0.508" stop-color="#65484A"/>
<stop offset="0.902" stop-color="#3C1534"/>
</radialGradient>
<linearGradient id="paint19_linear_10_60" x1="16.156" y1="19.522" x2="16.596" y2="21.124" gradientUnits="userSpaceOnUse">
<stop stop-color="#65484A"/>
<stop offset="1" stop-color="#65484A" stop-opacity="0"/>
</linearGradient>
<radialGradient id="paint20_radial_10_60" cx="0" cy="0" r="1" gradientUnits="userSpaceOnUse" gradientTransform="translate(14.75 21.178) rotate(133.995) scale(3.77918 1.8994)">
<stop stop-color="#392930"/>
<stop offset="1" stop-color="#392930" stop-opacity="0"/>
</radialGradient>
<linearGradient id="paint21_linear_10_60" x1="7.609" y1="4.094" x2="2.813" y2="15.6" gradientUnits="userSpaceOnUse">
<stop stop-color="#9F6C5B"/>
<stop offset="1" stop-color="#683C44"/>
</linearGradient>
<linearGradient id="paint22_linear_10_60" x1="0.719" y1="11.35" x2="4.406" y2="11.35" gradientUnits="userSpaceOnUse">
<stop stop-color="#5F333B"/>
<stop offset="1" stop-color="#683C44" stop-opacity="0"/>
</linearGradient>
<linearGradient id="paint23_linear_10_60" x1="7.969" y1="12.537" x2="6.875" y2="11.694" gradientUnits="userSpaceOnUse">
<stop offset="0.208" stop-color="#5F333B"/>
<stop offset="1" stop-color="#683C44" stop-opacity="0"/>
</linearGradient>
<linearGradient id="paint24_linear_10_60" x1="3.75" y1="18.35" x2="5.063" y2="12.662" gradientUnits="userSpaceOnUse">
<stop stop-color="#50212A"/>
<stop offset="1" stop-color="#683C44" stop-opacity="0"/>
</linearGradient>
<radialGradient id="paint25_radial_10_60" cx="0" cy="0" r="1" gradientUnits="userSpaceOnUse" gradientTransform="translate(11.2191 0.97481) rotate(125.218) scale(9.10379 9.64599)">
<stop stop-color="#BF867C"/>
<stop offset="1" stop-color="#BF867C" stop-opacity="0"/>
</radialGradient>
<linearGradient id="paint26_linear_10_60" x1="24.297" y1="4.094" x2="29.094" y2="15.6" gradientUnits="userSpaceOnUse">
<stop stop-color="#9F6C5B"/>
<stop offset="1" stop-color="#683C44"/>
</linearGradient>
<linearGradient id="paint27_linear_10_60" x1="22.719" y1="13.537" x2="25.969" y2="11.35" gradientUnits="userSpaceOnUse">
<stop stop-color="#5F333B"/>
<stop offset="1" stop-color="#683C44" stop-opacity="0"/>
</linearGradient>
<linearGradient id="paint28_linear_10_60" x1="28.156" y1="18.35" x2="26.844" y2="12.662" gradientUnits="userSpaceOnUse">
<stop stop-color="#50212A"/>
<stop offset="1" stop-color="#683C44" stop-opacity="0"/>
</linearGradient>
<radialGradient id="paint29_radial_10_60" cx="0" cy="0" r="1" gradientUnits="userSpaceOnUse" gradientTransform="translate(32.9683 10.6615) rotate(-173.904) scale(6.47411 6.85969)">
<stop stop-color="#BF867C"/>
<stop offset="1" stop-color="#BF867C" stop-opacity="0"/>
</radialGradient>
<linearGradient id="paint30_linear_10_60" x1="14.202" y1="13.498" x2="11.995" y2="13.498" gradientUnits="userSpaceOnUse">
<stop offset="0.006" stop-color="#5F5254"/>
<stop offset="1" stop-color="#2E2127"/>
</linearGradient>
<linearGradient id="paint31_linear_10_60" x1="11.995" y1="15.092" x2="11.995" y2="14.254" gradientUnits="userSpaceOnUse">
<stop offset="0.006" stop-color="#34222C"/>
<stop offset="1" stop-color="#34222C" stop-opacity="0"/>
</linearGradient>
<linearGradient id="paint32_linear_10_60" x1="20.186" y1="13.498" x2="17.98" y2="13.498" gradientUnits="userSpaceOnUse">
<stop offset="0.006" stop-color="#5F5254"/>
<stop offset="1" stop-color="#2E2127"/>
</linearGradient>
<linearGradient id="paint33_linear_10_60" x1="17.98" y1="15.092" x2="17.98" y2="14.254" gradientUnits="userSpaceOnUse">
<stop offset="0.006" stop-color="#34222C"/>
<stop offset="1" stop-color="#34222C" stop-opacity="0"/>
</linearGradient>
<linearGradient id="paint34_linear_10_60" x1="17.406" y1="16.725" x2="14.469" y2="19.662" gradientUnits="userSpaceOnUse">
<stop offset="0.191" stop-color="#5F5254"/>
<stop offset="1" stop-color="#2E2127"/>
</linearGradient>
<radialGradient id="paint35_radial_10_60" cx="0" cy="0" r="1" gradientUnits="userSpaceOnUse" gradientTransform="translate(16.3434 17.6303) rotate(135.864) scale(2.19891 4.04729)">
<stop offset="0.463" stop-color="#34222C" stop-opacity="0"/>
<stop offset="0.956" stop-color="#34222C"/>
</radialGradient>
<linearGradient id="paint36_linear_10_60" x1="16.375" y1="18.147" x2="16.375" y2="16.428" gradientUnits="userSpaceOnUse">
<stop offset="0.147" stop-color="#34222C" stop-opacity="0"/>
<stop offset="0.873" stop-color="#34222C"/>
</linearGradient>
<linearGradient id="paint37_linear_10_60" x1="nan" y1="nan" x2="nan" y2="nan" gradientUnits="userSpaceOnUse">
<stop stop-color="#B3887F"/>
<stop offset="1" stop-color="#B3887F" stop-opacity="0"/>
</linearGradient>
<linearGradient id="paint38_linear_10_60" x1="11.266" y1="6.459" x2="7.391" y2="12.209" gradientUnits="userSpaceOnUse">
<stop stop-color="#D3B4AE"/>
<stop offset="1" stop-color="#D3B4AE" stop-opacity="0"/>
</linearGradient>
</defs>
</svg>
